<svg xmlns="http://www.w3.org/2000/svg" viewBox="0 0 800 400">
  <defs>
    <radialGradient id="bgGradient" cx="50%" cy="50%" r="70%" fx="50%" fy="50%">
      <stop offset="0%" stop-color="#121836" />
      <stop offset="100%" stop-color="#0a0a16" />
    </radialGradient>
    
    <filter id="glow" x="-20%" y="-20%" width="140%" height="140%">
      <feGaussianBlur stdDeviation="5" result="blur" />
      <feComposite in="SourceGraphic" in2="blur" operator="over" />
    </filter>
    
    <linearGradient id="dataGradient1" x1="0%" y1="0%" x2="100%" y2="0%">
      <stop offset="0%" stop-color="#4affb3" />
      <stop offset="100%" stop-color="#64ffd9" />
    </linearGradient>
    
    <linearGradient id="dataGradient2" x1="0%" y1="0%" x2="100%" y2="0%">
      <stop offset="0%" stop-color="#ff4a9b" />
      <stop offset="100%" stop-color="#ff64d9" />
    </linearGradient>
    
    <linearGradient id="dataGradient3" x1="0%" y1="0%" x2="100%" y2="0%">
      <stop offset="0%" stop-color="#ffda4a" />
      <stop offset="100%" stop-color="#ffd064" />
    </linearGradient>
    
    <style>
      .geometric-shape {
        animation: float 20s infinite linear alternate;
        opacity: 0.2;
        filter: url(#glow);
      }
      
      .geometric-shape:nth-child(odd) {
        animation-duration: 25s;
        animation-direction: alternate-reverse;
      }
      
      .geometric-shape:nth-child(3n) {
        animation-duration: 30s;
        animation-delay: 5s;
      }
      
      @keyframes float {
        0% { transform: translate(0, 0) rotate(0deg); }
        25% { transform: translate(100px, 50px) rotate(90deg); }
        50% { transform: translate(50px, -50px) rotate(180deg); }
        75% { transform: translate(-100px, 25px) rotate(270deg); }
        100% { transform: translate(0, 0) rotate(360deg); }
      }
      
      .neuron {
        animation: pulse 3s infinite alternate;
        filter: url(#glow);
      }
      
      .neuron:nth-child(odd) {
        animation-delay: 0.5s;
      }
      
      .neuron:nth-child(3n) {
        animation-delay: 1s;
      }
      
      .neuron:nth-child(4n) {
        animation-delay: 1.5s;
      }
      
      @keyframes pulse {
        from { opacity: 0.3; r: 6; }
        to { opacity: 1; r: 9; }
      }
      
      .connection line {
        stroke-dasharray: 5;
        animation: dash 8s linear infinite;
      }
      
      .connection:nth-child(odd) line {
        animation-duration: 10s;
        animation-direction: reverse;
      }
      
      .connection:nth-child(3n) line {
        animation-duration: 12s;
        animation-delay: 2s;
      }
      
      @keyframes dash {
        to { stroke-dashoffset: -100; }
      }
      
      .dataflow {
        animation: dataFlow 6s infinite;
        filter: url(#glow);
      }
      
      .dataflow:nth-child(2) {
        animation-delay: 2s;
      }
      
      .dataflow:nth-child(3) {
        animation-delay: 4s;
      }
      
      @keyframes dataFlow {
        0% { stroke-dashoffset: 500; }
        100% { stroke-dashoffset: 0; }
      }
      
      .cursor {
        animation: blink 1s infinite;
      }
      
      @keyframes blink {
        0%, 49% { opacity: 1; }
        50%, 100% { opacity: 0; }
      }
      
      .text-background {
        fill: rgba(10, 10, 22, 0.7);
        animation: glow 4s infinite alternate;
      }
      
      @keyframes glow {
        0% { filter: drop-shadow(0 0 2px rgba(100, 217, 255, 0.2)); }
        100% { filter: drop-shadow(0 0 15px rgba(100, 217, 255, 0.8)); }
      }
      
      .text {
        font-family: monospace;
        font-size: 32px;
        font-weight: bold;
        fill: white;
        filter: url(#glow);
        letter-spacing: -1px;
      }
      
      .typing {
        opacity: 0;
        animation-name: typeIn;
        animation-duration: 0.5s;
        animation-fill-mode: forwards;
      }
      
      @keyframes typeIn {
        from { opacity: 0; }
        to { opacity: 1; }
      }
      
      .data-burst {
        animation: burst 6s infinite;
        transform-origin: center;
        opacity: 0.1;
      }
      
      @keyframes burst {
        0% { transform: scale(0); opacity: 0; }
        50% { transform: scale(1.5); opacity: 0.4; }
        100% { transform: scale(0); opacity: 0; }
      }
      
      .particle {
        animation: float 8s infinite linear;
        opacity: 0.5;
      }
      
      .binary-text {
        font-family: monospace;
        font-size: 14px;
        fill: rgba(100, 217, 255, 0.4);
        animation: fadeInOut 8s infinite alternate;
      }
      
      @keyframes fadeInOut {
        0% { opacity: 0.1; }
        50% { opacity: 0.4; }
        100% { opacity: 0.1; }
      }
      
      .active-path {
        animation: activatePath 3s infinite;
        stroke-width: 3;
      }
      
      @keyframes activatePath {
        0% { stroke: rgba(74, 255, 179, 0.1); }
        50% { stroke: rgba(74, 255, 179, 1); }
        100% { stroke: rgba(74, 255, 179, 0.1); }
      }
      
      .central-node {
        animation: centralPulse 5s infinite alternate;
      }
      
      @keyframes centralPulse {
        0% { r: 15; filter: drop-shadow(0 0 5px rgba(100, 217, 255, 0.3)); }
        100% { r: 25; filter: drop-shadow(0 0 25px rgba(100, 217, 255, 0.9)); }
      }
      
      .processing-ring {
        animation: spin 20s linear infinite;
        transform-origin: center;
        opacity: 0.2;
      }
      
      @keyframes spin {
        from { transform: rotate(0deg); }
        to { transform: rotate(360deg); }
      }
    </style>
  </defs>
  
  <!-- Background -->
  <rect width="800" height="400" fill="url(#bgGradient)"/>
  
  <!-- Binary code background -->
  <g class="binary-background">
    <text x="50" y="50" class="binary-text">01001001 01101110 01110100 01100101 01101100 01101100 01101001 01100111 01100101 01101110 01100011 01100101</text>
    <text x="70" y="80" class="binary-text">01000001 01110010 01110100 01101001 01100110 01101001 01100011 01101001 01100001 01101100</text>
    <text x="90" y="110" class="binary-text">01001110 01100101 01110101 01110010 01100001 01101100 00100000 01001110 01100101 01110100 01110111 01101111 01110010 01101011</text>
    <text x="100" y="330" class="binary-text">01000100 01100101 01100101 01110000 00100000 01001100 01100101 01100001 01110010 01101110 01101001 01101110 01100111</text>
    <text x="450" y="70" class="binary-text">01000001 01001001 00100000 01010100 01100101 01100011 01101000 01101110 01101111 01101100 01101111 01100111 01111001</text>
    <text x="500" y="350" class="binary-text">01000100 01100001 01110100 01100001 00100000 01010011 01100011 01101001 01100101 01101110 01100011 01100101</text>
  </g>
  
  <!-- Processing rings -->
    <g class="processing-rings">
    <circle cx="400" cy="200" r="180" fill="none" stroke="rgba(100, 217, 255, 0.05)" stroke-width="2" class="processing-ring" />
    <circle cx="400" cy="200" r="170" fill="none" stroke="rgba(255, 74, 155, 0.05)" stroke-width="1" class="processing-ring" style="animation-direction: reverse;" />
    <circle cx="400" cy="200" r="160" fill="none" stroke="rgba(74, 255, 179, 0.05)" stroke-width="3" class="processing-ring" style="animation-duration: 15s;" />
  </g>
  <!-- Data bursts -->
  <g class="data-bursts">
    <circle cx="400" cy="200" r="50" fill="rgba(100, 217, 255, 0.1)" class="data-burst" />
    <circle cx="400" cy="200" r="50" fill="rgba(74, 255, 179, 0.1)" class="data-burst" style="animation-delay: 2s;" />
    <circle cx="400" cy="200" r="50" fill="rgba(255, 74, 155, 0.1)" class="data-burst" style="animation-delay: 4s;" />
  </g>
  
  <!-- Floating Geometric Shapes -->
  <g>
    <polygon class="geometric-shape" points="100,20 130,50 100,80 70,50" fill="none" stroke="#4aeeff" stroke-width="2" />
    <rect class="geometric-shape" x="650" y="40" width="40" height="40" rx="5" ry="5" fill="none" stroke="#ff4a9b" stroke-width="2" transform="rotate(45, 670, 60)" />
    <circle class="geometric-shape" cx="300" cy="40" r="20" fill="none" stroke="#4affb3" stroke-width="2" />
    <polygon class="geometric-shape" points="500,30 530,30 540,60 515,80 490,60" fill="none" stroke="#ffda4a" stroke-width="2" />
    <rect class="geometric-shape" x="200" y="340" width="30" height="30" fill="none" stroke="#9b64ff" stroke-width="2" />
    <polygon class="geometric-shape" points="670,340 700,360 670,380 640,360" fill="none" stroke="#64ffd9" stroke-width="2" />
    <circle class="geometric-shape" cx="400" cy="360" r="15" fill="none" stroke="#ff64d9" stroke-width="2" />
    <polygon class="geometric-shape" points="120,290 140,320 100,320" fill="none" stroke="#4aeeff" stroke-width="2" />
    <polygon class="geometric-shape" points="720,120 750,130 740,160 710,150" fill="none" stroke="#9b64ff" stroke-width="2" />
    <circle class="geometric-shape" cx="110" cy="370" r="18" fill="none" stroke="#ffda4a" stroke-width="2" />
  </g>
  
  <!-- Neural network background -->
  <!-- Input Layer Neurons -->
  <g class="layer1">
    <circle cx="70" cy="60" r="7" fill="#4a9bff" class="neuron" opacity="0.7"/>
    <circle cx="70" cy="90" r="7" fill="#4a9bff" class="neuron" opacity="0.7"/>
    <circle cx="70" cy="120" r="7" fill="#4a9bff" class="neuron" opacity="0.7"/>
    <circle cx="70" cy="150" r="7" fill="#4a9bff" class="neuron" opacity="0.7"/>
    <circle cx="70" cy="180" r="7" fill="#4a9bff" class="neuron" opacity="0.7"/>
    <circle cx="70" cy="210" r="7" fill="#4a9bff" class="neuron" opacity="0.7"/>
    <circle cx="70" cy="240" r="7" fill="#4a9bff" class="neuron" opacity="0.7"/>
    <circle cx="70" cy="270" r="7" fill="#4a9bff" class="neuron" opacity="0.7"/>
    <circle cx="70" cy="300" r="7" fill="#4a9bff" class="neuron" opacity="0.7"/>
  </g>
  
  <!-- Layer 2 Neurons -->
  <g class="layer2">
    <circle cx="160" cy="70" r="7" fill="#64d9ff" class="neuron" opacity="0.8"/>
    <circle cx="160" cy="100" r="7" fill="#64d9ff" class="neuron" opacity="0.8"/>
    <circle cx="160" cy="130" r="7" fill="#64d9ff" class="neuron" opacity="0.8"/>
    <circle cx="160" cy="160" r="7" fill="#64d9ff" class="neuron" opacity="0.8"/>
    <circle cx="160" cy="190" r="7" fill="#64d9ff" class="neuron" opacity="0.8"/>
    <circle cx="160" cy="220" r="7" fill="#64d9ff" class="neuron" opacity="0.8"/>
    <circle cx="160" cy="250" r="7" fill="#64d9ff" class="neuron" opacity="0.8"/>
    <circle cx="160" cy="280" r="7" fill="#64d9ff" class="neuron" opacity="0.8"/>
  </g>
  
  <!-- Layer 3 Neurons -->
  <g class="layer3">
    <circle cx="250" cy="80" r="7" fill="#64ffd9" class="neuron" opacity="0.8"/>
    <circle cx="250" cy="110" r="7" fill="#64ffd9" class="neuron" opacity="0.8"/>
    <circle cx="250" cy="140" r="7" fill="#64ffd9" class="neuron" opacity="0.8"/>
    <circle cx="250" cy="170" r="7" fill="#64ffd9" class="neuron" opacity="0.8"/>
    <circle cx="250" cy="200" r="7" fill="#64ffd9" class="neuron" opacity="0.8"/>
    <circle cx="250" cy="230" r="7" fill="#64ffd9" class="neuron" opacity="0.8"/>
    <circle cx="250" cy="260" r="7" fill="#64ffd9" class="neuron" opacity="0.8"/>
  </g>

  <!-- Layer 4 Neurons -->
  <g class="layer4">
    <circle cx="340" cy="90" r="7" fill="#9b64ff" class="neuron" opacity="0.8"/>
    <circle cx="340" cy="120" r="7" fill="#9b64ff" class="neuron" opacity="0.8"/>
    <circle cx="340" cy="150" r="7" fill="#9b64ff" class="neuron" opacity="0.8"/>
    <circle cx="340" cy="180" r="7" fill="#9b64ff" class="neuron" opacity="0.8"/>
    <circle cx="340" cy="210" r="7" fill="#9b64ff" class="neuron" opacity="0.8"/>
    <circle cx="340" cy="240" r="7" fill="#9b64ff" class="neuron" opacity="0.8"/>
  </g>
  
  <!-- Layer 5 Neurons -->
  <g class="layer5">
    <circle cx="430" cy="100" r="7" fill="#ff64d9" class="neuron" opacity="0.7"/>
    <circle cx="430" cy="130" r="7" fill="#ff64d9" class="neuron" opacity="0.7"/>
    <circle cx="430" cy="160" r="7" fill="#ff64d9" class="neuron" opacity="0.7"/>
    <circle cx="430" cy="190" r="7" fill="#ff64d9" class="neuron" opacity="0.7"/>
    <circle cx="430" cy="220" r="7" fill="#ff64d9" class="neuron" opacity="0.7"/>
    <circle cx="430" cy="250" r="7" fill="#ff64d9" class="neuron" opacity="0.7"/>
  </g>
  
  <!-- Layer 6 Neurons -->
  <g class="layer6">
    <circle cx="520" cy="110" r="7" fill="#ff9b64" class="neuron" opacity="0.7"/>
    <circle cx="520" cy="140" r="7" fill="#ff9b64" class="neuron" opacity="0.7"/>
    <circle cx="520" cy="170" r="7" fill="#ff9b64" class="neuron" opacity="0.7"/>
    <circle cx="520" cy="200" r="7" fill="#ff9b64" class="neuron" opacity="0.7"/>
    <circle cx="520" cy="230" r="7" fill="#ff9b64" class="neuron" opacity="0.7"/>
  </g>
  
  <!-- Layer 7 Neurons -->
  <g class="layer7">
    <circle cx="610" cy="120" r="7" fill="#ffda4a" class="neuron" opacity="0.7"/>
    <circle cx="610" cy="150" r="7" fill="#ffda4a" class="neuron" opacity="0.7"/>
    <circle cx="610" cy="180" r="7" fill="#ffda4a" class="neuron" opacity="0.7"/>
    <circle cx="610" cy="210" r="7" fill="#ffda4a" class="neuron" opacity="0.7"/>
  </g>
  
  <!-- Layer 8 Neurons -->
  <g class="layer8">
    <circle cx="700" cy="130" r="7" fill="#4affb3" class="neuron" opacity="0.7"/>
    <circle cx="700" cy="160" r="7" fill="#4affb3" class="neuron" opacity="0.7"/>
    <circle cx="700" cy="190" r="7" fill="#4affb3" class="neuron" opacity="0.7"/>
  </g>
  
  <!-- Connections between layers -->
  <g class="connection" stroke-width="0.8" stroke="#4a9bff" opacity="0.2">
    <line x1="77" y1="60" x2="153" y2="70" />
    <line x1="77" y1="60" x2="153" y2="100" />
    <line x1="77" y1="90" x2="153" y2="70" />
    <line x1="77" y1="90" x2="153" y2="130" />
    <line x1="77" y1="120" x2="153" y2="100" />
    <line x1="77" y1="120" x2="153" y2="160" />
    <line x1="77" y1="150" x2="153" y2="130" />
    <line x1="77" y1="150" x2="153" y2="190" />
    <line x1="77" y1="180" x2="153" y2="160" />
    <line x1="77" y1="180" x2="153" y2="220" />
    <line x1="77" y1="210" x2="153" y2="190" />
    <line x1="77" y1="240" x2="153" y2="220" />
    <line x1="77" y1="270" x2="153" y2="250" />
    <line x1="77" y1="300" x2="153" y2="280" />
  </g>
  
  <g class="connection" stroke-width="0.8" stroke="#64d9ff" opacity="0.2">
    <line x1="167" y1="70" x2="243" y2="80" />
    <line x1="167" y1="100" x2="243" y2="80" />
    <line x1="167" y1="100" x2="243" y2="110" />
    <line x1="167" y1="130" x2="243" y2="110" />
    <line x1="167" y1="130" x2="243" y2="140" />
    <line x1="167" y1="160" x2="243" y2="140" />
    <line x1="167" y1="160" x2="243" y2="170" />
    <line x1="167" y1="190" x2="243" y2="170" />
    <line x1="167" y1="190" x2="243" y2="200" />
    <line x1="167" y1="220" x2="243" y2="200" />
    <line x1="167" y1="220" x2="243" y2="230" />
    <line x1="167" y1="250" x2="243" y2="230" />
    <line x1="167" y1="250" x2="243" y2="260" />
    <line x1="167" y1="280" x2="243" y2="260" />
  </g>
  
  <g class="connection" stroke-width="0.8" stroke="#64ffd9" opacity="0.2">
    <line x1="257" y1="80" x2="333" y2="90" />
    <line x1="257" y1="110" x2="333" y2="90" />
    <line x1="257" y1="110" x2="333" y2="120" />
    <line x1="257" y1="140" x2="333" y2="120" />
    <line x1="257" y1="140" x2="333" y2="150" />
    <line x1="257" y1="170" x2="333" y2="150" />
    <line x1="257" y1="170" x2="333" y2="180" />
    <line x1="257" y1="200" x2="333" y2="180" />
    <line x1="257" y1="200" x2="333" y2="210" />
    <line x1="257" y1="230" x2="333" y2="210" />
    <line x1="257" y1="230" x2="333" y2="240" />
    <line x1="257" y1="260" x2="333" y2="240" />
  </g>

  <g class="connection" stroke-width="0.8" stroke="#9b64ff" opacity="0.2">
    <line x1="347" y1="90" x2="423" y2="100" />
    <line x1="347" y1="120" x2="423" y2="100" />
    <line x1="347" y1="120" x2="423" y2="130" />
    <line x1="347" y1="150" x2="423" y2="130" />
    <line x1="347" y1="150" x2="423" y2="160" />
    <line x1="347" y1="180" x2="423" y2="160" />
    <line x1="347" y1="180" x2="423" y2="190" />
    <line x1="347" y1="210" x2="423" y2="190" />
    <line x1="347" y1="210" x2="423" y2="220" />
    <line x1="347" y1="240" x2="423" y2="220" />
    <line x1="347" y1="240" x2="423" y2="250" />
  </g>
  
  <g class="connection" stroke-width="0.8" stroke="#ff64d9" opacity="0.2">
    <line x1="437" y1="100" x2="513" y2="110" />
    <line x1="437" y1="130" x2="513" y2="110" />
    <line x1="437" y1="130" x2="513" y2="140" />
    <line x1="437" y1="160" x2="513" y2="140" />
    <line x1="437" y1="160" x2="513" y2="170" />
    <line x1="437" y1="190" x2="513" y2="170" />
    <line x1="437" y1="190" x2="513" y2="200" />
    <line x1="437" y1="220" x2="513" y2="200" />
    <line x1="437" y1="220" x2="513" y2="230" />
    <line x1="437" y1="250" x2="513" y2="230" />
  </g>
  
  <g class="connection" stroke-width="0.8" stroke="#ff9b64" opacity="0.2">
    <line x1="527" y1="110" x2="603" y2="120" />
    <line x1="527" y1="140" x2="603" y2="120" />
    <line x1="527" y1="140" x2="603" y2="150" />
    <line x1="527" y1="170" x2="603" y2="150" />
    <line x1="527" y1="170" x2="603" y2="180" />
    <line x1="527" y1="200" x2="603" y2="180" />
    <line x1="527" y1="200" x2="603" y2="210" />
    <line x1="527" y1="230" x2="603" y2="210" />
  </g>
  
  <g class="connection" stroke-width="0.8" stroke="#ffda4a" opacity="0.2">
    <line x1="617" y1="120" x2="693" y2="130" />
    <line x1="617" y1="150" x2="693" y2="130" />
    <line x1="617" y1="150" x2="693" y2="160" />
    <line x1="617" y1="180" x2="693" y2="160" />
    <line x1="617" y1="180" x2="693" y2="190" />
    <line x1="617" y1="210" x2="693" y2="190" />
  </g>
  
  <!-- Active connection paths -->
  <g class="active-connections">
    <path d="M70,120 L160,160 L250,170 L340,180 L430,190 L520,200 L610,180 L700,160" 
          class="active-path" fill="none" stroke="rgba(74, 255, 179, 0.1)" />
          
    <path d="M70,60 L160,70 L250,80 L340,90 L430,100 L520,110 L610,120 L700,130" 
          class="active-path" fill="none" stroke="rgba(255, 74, 155, 0.1)" 
          style="animation-delay: 1s;" />
          
    <path d="M70,240 L160,220 L250,200 L340,210 L430,220 L520,200 L610,210 L700,190" 
          class="active-path" fill="none" stroke="rgba(255, 218, 74, 0.1)" 
          style="animation-delay: 2s;" />
  </g>
  
  <!-- Data flowing through network -->
  <g class="dataflow">
    <path d="M70,60 Q115,65 160,70 Q205,75 250,80 Q295,85 340,90 Q385,95 430,100 Q475,105 520,110 Q565,115 610,120 Q655,125 700,130" 
          fill="none" stroke="url(#dataGradient1)" stroke-width="3" opacity="0.8" 
          stroke-dasharray="10,10" />
    
    <path d="M70,150 Q115,145 160,160 Q205,150 250,140 Q295,145 340,150 Q385,155 430,160 Q475,155 520,140 Q565,145 610,150 Q655,155 700,160" 
          fill="none" stroke="url(#dataGradient2)" stroke-width="3" opacity="0.8" 
          stroke-dasharray="10,10" />
          
    <path d="M70,240 Q115,230 160,220 Q205,210 250,200 Q295,205 340,210 Q385,200 430,190 Q475,180 520,170 Q565,175 610,180 Q655,170 700,160" 
          fill="none" stroke="url(#dataGradient3)" stroke-width="3" opacity="0.8" 
          stroke-dasharray="10,10" />
  </g>
  
  <!-- Data particles -->
  <g class="particles">
    <circle cx="200" cy="100" r="3" fill="#4affb3" class="particle" />
    <circle cx="350" cy="150" r="2" fill="#ff4a9b" class="particle" />
    <circle cx="550" cy="180" r="4" fill="#ffda4a" class="particle" />
    <circle cx="450" cy="210" r="3" fill="#64d9ff" class="particle" />
    <circle cx="300" cy="240" r="2" fill="#9b64ff" class="particle" />
    <circle cx="150" cy="270" r="3" fill="#ff64d9" class="particle" />
    <circle cx="600" cy="130" r="2" fill="#4aeeff" class="particle" />
    <circle cx="250" cy="300" r="4" fill="#ff9b64" class="particle" />
  </g>
  <!-- Text overlay -->
  <g>
    <rect x="100" y="158" width="600" height="70" rx="10" ry="10" class="text-background" />
    <!-- Text as a single tspan with better spacing -->
    <text x="400" y="200" text-anchor="middle" class="text">
      <tspan class="typing" style="animation-delay: 0.1s; animation-duration: 0.2s;">Hi there! I'm Amr Shaarawy 🤖</tspan>
    </text>
    <!-- Blinking cursor at the end of the text -->
    <rect x="645" y="175" width="3" height="30" fill="white" class="cursor" />
  </g>
</svg>
